<?xml version="1.0" encoding="UTF-8" standalone="no"?>
<!-- Created with Inkscape (http://www.inkscape.org/) -->

<svg
   width="28.610001mm"
   height="11.09mm"
   viewBox="2 2 28.609999 11.090001"
   version="1.1"
   id="svg5"
   inkscape:export-filename="KLS-VR Logo.svg"
   inkscape:export-xdpi="607.21277"
   inkscape:export-ydpi="607.21277"
   inkscape:version="1.2.2 (732a01da63, 2022-12-09)"
   sodipodi:docname="KLS-VR Logo.svg"
   xml:space="preserve"
   xmlns:inkscape="http://www.inkscape.org/namespaces/inkscape"
   xmlns:sodipodi="http://sodipodi.sourceforge.net/DTD/sodipodi-0.dtd"
   xmlns="http://www.w3.org/2000/svg"
   xmlns:svg="http://www.w3.org/2000/svg"><sodipodi:namedview
     id="namedview7"
     pagecolor="#ffffff"
     bordercolor="#000000"
     borderopacity="0.25"
     inkscape:showpageshadow="2"
     inkscape:pageopacity="0.0"
     inkscape:pagecheckerboard="false"
     inkscape:deskcolor="#d1d1d1"
     inkscape:document-units="mm"
     showgrid="false"
     inkscape:zoom="5.908137"
     inkscape:cx="63.810301"
     inkscape:cy="5.500888"
     inkscape:window-width="1920"
     inkscape:window-height="992"
     inkscape:window-x="-8"
     inkscape:window-y="-8"
     inkscape:window-maximized="1"
     inkscape:current-layer="layer1" /><defs
     id="defs2"><rect
       x="144.54642"
       y="-42.314522"
       width="180.42912"
       height="121.18879"
       id="rect218" /></defs><g
     inkscape:label="Capa 1"
     inkscape:groupmode="layer"
     id="layer1"
     transform="translate(-25.252653,-82.823386)"><path
       id="text240"
       style="font-style:normal;font-variant:normal;font-weight:normal;font-stretch:normal;font-size:3.175px;font-family:Ubuntu;-inkscape-font-specification:Ubuntu;fill:#000000;stroke-width:0.264583"
       d="M 50.479142 85.324131 C 50.443012 85.325033 50.417259 85.326877 50.411446 85.330332 L 50.411446 85.330849 C 50.403346 85.335649 50.396977 85.344112 50.396977 85.349452 C 50.396977 85.355552 50.384078 85.362392 50.368038 85.365472 C 50.324748 85.373172 50.210315 85.434303 50.190271 85.461073 C 50.179881 85.474063 50.155524 85.491917 50.135494 85.500347 C 50.110644 85.511797 50.084131 85.534688 50.051261 85.573728 C 50.016781 85.613538 49.995471 85.631646 49.979431 85.634706 C 49.965801 85.637106 49.937405 85.656958 49.911735 85.680698 C 49.872445 85.718958 49.86781 85.725809 49.86781 85.755629 C 49.86781 85.798469 49.846455 85.824693 49.804765 85.831593 C 49.786325 85.833993 49.765869 85.843611 49.754639 85.855881 C 49.744249 85.866611 49.729069 85.882144 49.721049 85.888954 C 49.697789 85.911914 49.691593 85.949179 49.691593 86.067754 L 49.691593 86.180926 L 49.735518 86.224334 C 49.759578 86.248054 49.77996 86.274298 49.77996 86.281178 C 49.77996 86.288878 49.785142 86.295131 49.792362 86.295131 C 49.798862 86.295131 49.802097 86.298082 49.799597 86.302882 C 49.796397 86.307682 49.819129 86.310117 49.861609 86.310117 C 49.924149 86.310117 49.931006 86.312292 49.972713 86.336472 C 50.007193 86.357122 50.022387 86.373153 50.044027 86.411403 C 50.070487 86.455783 50.07145 86.461854 50.06263 86.486334 C 50.0506 86.520744 50.04905 86.67292 50.06108 86.695106 C 50.09716 86.761656 50.156655 86.763998 50.235229 86.702858 C 50.263289 86.680678 50.271994 86.677435 50.277604 86.685805 C 50.281604 86.691905 50.284839 86.701378 50.284839 86.705958 C 50.284839 86.720498 50.320992 86.73972 50.337032 86.73438 C 50.347432 86.73078 50.349837 86.731164 50.345817 86.736964 C 50.338617 86.747704 50.375476 86.784507 50.392326 86.784507 C 50.409166 86.784507 50.437284 86.838696 50.437284 86.870806 C 50.437284 86.905206 50.459386 86.975017 50.478625 87.001031 C 50.487425 87.012481 50.507554 87.028258 50.523584 87.036688 C 50.542024 87.045088 50.547907 87.051421 50.539087 87.052191 C 50.531887 87.052191 50.509985 87.041733 50.491545 87.029453 L 50.458988 87.006198 L 50.233679 87.006198 C 50.109404 87.006198 49.97358 87.002547 49.931889 86.998447 C 49.766724 86.981607 49.539053 86.934814 49.502974 86.909564 C 49.435615 86.862874 49.34649 86.824238 49.250277 86.800526 C 49.171697 86.780656 48.980821 86.753501 48.91748 86.753501 C 48.849341 86.753501 48.823922 86.743865 48.793457 86.703375 C 48.760577 86.658995 48.512812 86.44528 48.47513 86.428456 C 48.45268 86.417716 48.442892 86.417005 48.433272 86.423805 C 48.407612 86.441425 48.379165 86.449299 48.304598 86.459979 C 48.262908 86.466079 48.21469 86.473698 48.198661 86.475998 C 48.180221 86.478398 48.168172 86.484328 48.168172 86.490468 C 48.168172 86.497368 48.159134 86.50132 48.143884 86.50132 C 48.127844 86.50132 48.120113 86.504839 48.120113 86.512689 C 48.120113 86.518789 48.114414 86.524057 48.107194 86.524057 C 48.099094 86.524057 48.095989 86.528879 48.098409 86.534909 C 48.104909 86.550209 47.972654 86.670879 47.923743 86.69459 C 47.890073 86.71066 47.878571 86.721371 47.861731 86.755051 C 47.829661 86.816241 47.817612 86.880693 47.831242 86.925067 C 47.843272 86.967126 47.887324 87.033432 47.933044 87.080096 C 47.963514 87.111486 47.967552 87.113169 48.010042 87.113169 C 48.045322 87.113169 48.056034 87.1109 48.056034 87.1018 C 48.056034 87.0957 48.06149 87.090431 48.06792 87.090431 C 48.07442 87.090431 48.079806 87.085296 48.079806 87.080096 C 48.079806 87.074696 48.085505 87.062354 48.092725 87.053224 L 48.105644 87.035654 L 48.137683 87.064076 C 48.155323 87.079376 48.185622 87.098538 48.204862 87.106968 C 48.283442 87.139828 48.467795 87.165129 48.649797 87.167429 L 48.735063 87.167946 L 48.740747 87.284218 C 48.743247 87.347708 48.748703 87.428619 48.752633 87.464568 C 48.757533 87.500518 48.760718 87.59192 48.761418 87.667657 C 48.763018 87.868079 48.77652 87.894701 48.889575 87.908469 C 48.922455 87.912069 49.042142 87.91622 49.155192 87.91622 C 49.332384 87.91622 49.366071 87.914238 49.403756 87.902268 C 49.518411 87.865548 49.527248 87.864656 49.698828 87.891416 C 49.785418 87.905186 49.884725 87.91622 49.920003 87.91622 C 49.978523 87.91622 50.066625 87.925978 50.101904 87.935858 C 50.110004 87.938258 50.131007 87.952323 50.149447 87.966863 C 50.229627 88.030353 50.235317 88.031814 50.419714 88.038694 C 50.511114 88.042294 50.592047 88.047559 50.600065 88.050579 C 50.614495 88.055379 50.615151 88.065068 50.611951 88.182871 C 50.608751 88.298385 50.606222 88.316494 50.584562 88.377691 C 50.557302 88.456491 50.53489 88.480684 50.46674 88.51205 C 50.41622 88.53501 50.259058 88.57771 50.148413 88.5999 C 49.973626 88.63354 49.760974 88.639153 49.414608 88.616953 C 49.304764 88.610053 49.125972 88.604551 49.017733 88.604551 C 48.844549 88.604551 48.816136 88.602464 48.771236 88.589564 C 48.743176 88.581164 48.675843 88.568529 48.622925 88.561659 C 48.569195 88.555559 48.461665 88.541383 48.384696 88.530653 C 48.287677 88.516883 48.187134 88.509192 48.059652 88.505332 C 47.958628 88.501732 47.826494 88.495402 47.767163 88.490862 C 47.707833 88.486062 47.52731 88.476819 47.366154 88.470709 C 47.204997 88.464609 46.942334 88.449946 46.781177 88.439186 C 46.620021 88.428506 46.470831 88.42189 46.448381 88.4242 C 46.377031 88.4311 46.34419 88.438021 46.330558 88.449521 C 46.319338 88.458721 46.300732 88.460129 46.242192 88.457789 C 46.179652 88.454889 46.148393 88.447728 46.047371 88.414898 C 45.871783 88.358298 45.771827 88.342003 45.463945 88.319813 C 45.338068 88.311413 45.327216 88.311431 45.320801 88.323431 C 45.313601 88.334881 45.297844 88.336867 45.195227 88.336867 C 45.104627 88.336274 45.073928 88.333531 45.061902 88.324981 C 45.053102 88.318881 45.035458 88.313612 45.022628 88.313612 C 45.004988 88.313612 44.989019 88.303895 44.958549 88.274855 C 44.936889 88.253445 44.910575 88.23247 44.900155 88.22938 C 44.888935 88.22458 44.881034 88.215832 44.881034 88.206642 C 44.881034 88.184462 44.851888 88.169871 44.795768 88.163751 C 44.753278 88.160151 44.74446 88.160852 44.73324 88.173052 C 44.72604 88.181452 44.705911 88.203552 44.688281 88.222662 L 44.656242 88.257802 L 44.656242 88.346685 C 44.656242 88.514212 44.681428 88.669308 44.723938 88.75958 C 44.749598 88.81463 44.802248 88.869795 44.840727 88.880503 C 44.874397 88.890503 44.996253 88.883034 44.989038 88.872234 C 44.980938 88.859244 45.021171 88.841745 45.057251 88.841745 C 45.077301 88.841745 45.14635 88.850702 45.209696 88.861382 C 45.309913 88.878222 45.342555 88.880706 45.449992 88.878436 C 45.583888 88.875536 45.579036 88.875771 45.676851 88.820041 L 45.721293 88.795753 L 45.763668 88.81384 C 45.834218 88.84445 46.021551 88.877727 46.16106 88.883087 C 46.23161 88.885987 46.301337 88.893523 46.325391 88.899623 C 46.348651 88.906523 46.387407 88.915734 46.410657 88.920294 C 46.450737 88.928694 46.452515 88.929807 46.452515 88.954917 C 46.452515 88.968687 46.448346 88.986804 46.444246 88.995224 C 46.437046 89.007454 46.438502 89.009694 46.456132 89.009694 C 46.474572 89.009694 46.481313 89.019259 46.516593 89.088759 C 46.563103 89.181309 46.602292 89.22312 46.698494 89.282029 C 46.752224 89.315669 46.764899 89.327332 46.772909 89.351792 C 46.778509 89.367862 46.788183 89.387286 46.794613 89.394166 C 46.809843 89.410236 46.871293 89.430857 46.904167 89.430857 C 46.917797 89.430857 46.942914 89.439267 46.958944 89.449977 C 46.974984 89.460707 46.997606 89.469097 47.008036 89.469097 C 47.019256 89.469097 47.031882 89.474416 47.037492 89.480466 C 47.043092 89.486566 47.059012 89.491835 47.072632 89.491835 C 47.086262 89.492429 47.10637 89.497154 47.11759 89.503204 C 47.12881 89.509304 47.15191 89.513853 47.16875 89.514573 C 47.18639 89.514573 47.222155 89.520145 47.247815 89.526975 C 47.291915 89.539205 47.305195 89.539205 47.444702 89.526975 C 47.527292 89.520075 47.650953 89.505432 47.719104 89.495452 C 47.831353 89.478612 47.945892 89.466331 48.095825 89.455661 C 48.131105 89.453261 48.187445 89.458511 48.268424 89.471681 C 48.334974 89.482411 48.443669 89.496314 48.51182 89.503204 C 48.630482 89.514654 48.708567 89.526296 48.720593 89.533176 C 48.723793 89.535576 48.758078 89.538628 48.796558 89.540928 C 48.835038 89.543328 48.869312 89.546896 48.872522 89.549196 C 48.876522 89.550996 48.918463 89.556015 48.966573 89.560565 C 49.057973 89.568265 49.183259 89.597995 49.357247 89.651515 C 49.413367 89.668355 49.466018 89.683038 49.474036 89.683038 C 49.482136 89.683038 49.499203 89.690951 49.511243 89.700091 C 49.524063 89.709291 49.571705 89.726821 49.618213 89.738331 C 50.031127 89.843133 50.045109 89.846145 50.152547 89.851503 C 50.219907 89.855103 50.269338 89.861513 50.29259 89.870623 C 50.31264 89.877523 50.371959 89.888234 50.424882 89.894394 C 50.477802 89.899794 50.538162 89.90631 50.558207 89.90938 L 50.595931 89.914548 L 50.604716 89.969325 C 50.609616 89.999165 50.618967 90.057453 50.625387 90.097999 C 50.662277 90.328261 50.768092 90.437553 50.975753 90.459734 C 51.017443 90.464534 51.025478 90.462266 51.092025 90.430796 C 51.142535 90.406296 51.181192 90.393751 51.2269 90.386871 C 51.27982 90.379171 51.297893 90.37235 51.33077 90.34863 C 51.35322 90.33331 51.395151 90.30814 51.424821 90.29282 L 51.477531 90.264914 L 51.466679 90.218922 C 51.449039 90.146252 51.418993 90.104201 51.384513 90.104201 C 51.373293 90.104201 51.343982 90.074906 51.343172 90.063376 C 51.343172 90.053376 51.379042 90.057377 51.395882 90.069577 C 51.403982 90.075677 51.426252 90.080946 51.445492 90.080946 C 51.469542 90.080946 51.479598 90.083705 51.479598 90.092315 C 51.479598 90.101515 51.489997 90.104201 51.526107 90.104201 C 51.565387 90.104201 51.575706 90.106594 51.591736 90.122804 C 51.609376 90.140424 51.615461 90.141924 51.68682 90.141924 C 51.74214 90.141924 51.787918 90.147335 51.848051 90.161045 C 51.893751 90.171775 51.95388 90.182759 51.980343 90.185849 C 52.006793 90.188249 52.036342 90.195079 52.045972 90.200319 C 52.055672 90.206419 52.072475 90.211171 52.083695 90.211171 C 52.094915 90.211171 52.1061 90.214122 52.1085 90.218922 C 52.111 90.222522 52.119884 90.226157 52.127104 90.226157 C 52.134304 90.226157 52.178272 90.251094 52.224772 90.280934 C 52.376307 90.378084 52.54822 90.471248 52.596326 90.481955 C 52.645236 90.493465 52.667819 90.533814 52.630949 90.547584 C 52.620549 90.551184 52.607327 90.563776 52.602527 90.576006 C 52.576877 90.634136 52.527092 90.68611 52.28575 90.902601 C 52.216 90.966091 52.144975 91.035177 52.128137 91.056597 C 52.100077 91.092547 52.096615 91.100817 52.096615 91.141347 C 52.096615 91.168867 52.10137 91.193418 52.1085 91.203358 C 52.12132 91.220198 52.115929 91.228588 52.086279 91.238498 C 52.050989 91.250728 51.82076 91.290519 51.747799 91.297409 C 51.62593 91.308859 51.495618 91.329287 51.495618 91.336167 C 51.495618 91.339767 51.490569 91.343401 51.484249 91.343401 C 51.477749 91.343401 51.459171 91.350251 51.443941 91.359421 C 51.407051 91.380051 51.35672 91.392788 51.221216 91.415748 C 51.161086 91.425748 51.048821 91.451943 50.972652 91.472593 C 50.895682 91.494003 50.817976 91.511867 50.799536 91.511867 C 50.780286 91.511867 50.739105 91.516162 50.707035 91.522202 C 50.674965 91.528302 50.635275 91.535142 50.617635 91.538222 C 50.559105 91.547422 50.538231 91.570546 50.517383 91.647776 C 50.512483 91.666156 50.50584 91.686097 50.50343 91.692217 C 50.50023 91.699917 50.50501 91.703069 50.51945 91.703069 C 50.53067 91.703069 50.541065 91.708328 50.544255 91.714438 C 50.546655 91.720538 50.554168 91.725807 50.561308 91.725807 C 50.567808 91.725807 50.573193 91.731126 50.573193 91.737176 C 50.573193 91.744076 50.58078 91.749061 50.59283 91.749061 C 50.61047 91.749061 50.611206 91.750872 50.603166 91.768182 C 50.595966 91.781952 50.586863 91.787302 50.571643 91.787302 C 50.553203 91.787302 50.549422 91.790212 50.549422 91.806422 C 50.549422 91.833172 50.562231 91.852831 50.611951 91.90254 C 50.647231 91.93772 50.654907 91.950509 50.660527 91.984189 C 50.666927 92.025479 50.684993 92.050953 50.710653 92.058603 C 50.719453 92.061503 50.725639 92.070874 50.725639 92.080824 C 50.725639 92.092274 50.744863 92.115124 50.780933 92.149554 C 50.865123 92.226814 50.902973 92.237038 51.001591 92.207948 C 51.093791 92.180428 51.152941 92.150674 51.217082 92.097877 C 51.251562 92.070357 51.291818 92.041722 51.305448 92.034832 C 51.319878 92.027932 51.356637 92.005873 51.387097 91.985223 C 51.418357 91.965343 51.481156 91.93461 51.527657 91.91701 C 51.574167 91.89939 51.67122 91.861067 51.744181 91.831227 C 51.954246 91.746317 51.962138 91.743509 52.004631 91.733559 C 52.06958 91.717489 52.124246 91.691454 52.218054 91.633306 C 52.279784 91.595046 52.317233 91.575915 52.342078 91.572845 L 52.377218 91.567677 L 52.377218 91.594032 L 52.377218 91.620904 L 52.464034 91.617287 C 52.56666 91.612487 52.633875 91.592065 52.65472 91.558375 C 52.67156 91.530855 52.726669 91.496364 52.753939 91.496364 C 52.785199 91.496364 52.866593 91.470403 52.866593 91.459673 C 52.866593 91.452773 52.893796 91.450372 52.977181 91.450372 C 53.050141 91.449778 53.097413 91.445653 53.118258 91.439003 C 53.135898 91.432903 53.152771 91.429651 53.155981 91.431251 C 53.159181 91.433651 53.174565 91.4294 53.190605 91.4235 C 53.227495 91.40896 53.267373 91.409399 53.289823 91.424533 C 53.303453 91.432933 53.307393 91.443452 53.307393 91.467942 C 53.307393 91.506202 53.324918 91.534604 53.349768 91.534604 C 53.359468 91.534604 53.37977 91.54117 53.39421 91.54959 C 53.41906 91.56413 53.419531 91.564571 53.419531 91.550624 C 53.419531 91.542224 53.426895 91.534544 53.438135 91.531504 C 53.451765 91.528604 53.46122 91.51222 53.48206 91.46019 C 53.49569 91.42347 53.511863 91.373046 53.516683 91.348569 C 53.523183 91.321049 53.530417 91.304644 53.536837 91.304644 C 53.544037 91.304644 53.548206 91.296467 53.548206 91.283457 C 53.548206 91.268137 53.553576 91.260364 53.570426 91.253484 C 53.582456 91.248684 53.646793 91.223127 53.712537 91.195607 C 53.779087 91.168087 53.875628 91.12789 53.928544 91.10724 C 54.084891 91.04528 54.119058 91.029563 54.163155 90.998203 C 54.186415 90.982133 54.210469 90.968231 54.216899 90.968231 C 54.223299 90.968231 54.231775 90.963309 54.234985 90.957379 C 54.241485 90.948079 54.460497 90.875588 54.516622 90.864878 C 54.535062 90.861278 54.541943 90.855821 54.541943 90.845241 C 54.541943 90.829941 54.568611 90.799765 54.582251 90.799765 C 54.587151 90.799765 54.590519 90.796297 54.590519 90.791497 C 54.590519 90.786697 54.604919 90.769337 54.622559 90.753257 C 54.640199 90.736417 54.654598 90.717245 54.654598 90.708815 C 54.654598 90.700415 54.661445 90.693038 54.672685 90.690728 C 54.682385 90.687828 54.694523 90.678457 54.698523 90.668507 C 54.704123 90.655517 54.722005 90.646104 54.762085 90.633884 C 54.830235 90.613234 54.855103 90.592856 54.855103 90.556886 C 54.855103 90.540046 54.860399 90.526042 54.871639 90.517612 C 54.897289 90.498502 54.911788 90.431869 54.916597 90.318658 C 54.920597 90.229158 54.919812 90.215224 54.907813 90.209104 C 54.900613 90.205504 54.894893 90.194026 54.894893 90.184816 C 54.894893 90.174816 54.889438 90.165158 54.883008 90.162078 C 54.876508 90.159678 54.871122 90.152565 54.871122 90.146575 C 54.871122 90.140475 54.862859 90.125712 54.852519 90.113502 C 54.842819 90.102052 54.829463 90.081797 54.823063 90.069577 C 54.810243 90.045077 54.548624 89.785651 54.4019 89.652549 C 54.160565 89.433761 54.115832 89.384865 54.15592 89.384865 C 54.16714 89.384865 54.169307 89.376058 54.170907 89.334739 C 54.172507 89.307989 54.176452 89.27146 54.181242 89.25309 C 54.185242 89.23476 54.18951 89.192699 54.18951 89.159039 C 54.18951 89.100129 54.188905 89.097665 54.167289 89.087725 C 54.155259 89.081625 54.115052 89.074785 54.077372 89.071705 C 54.039692 89.068106 53.999485 89.061026 53.987455 89.055686 C 53.974635 89.049586 53.951401 89.023727 53.932161 88.993157 L 53.898572 88.940447 L 53.904773 88.862416 C 53.911973 88.772156 53.911272 88.764984 53.901672 88.627288 C 53.891972 88.494944 53.884754 88.450619 53.872734 88.436085 C 53.867134 88.429185 53.860947 88.389465 53.857747 88.343585 C 53.849647 88.213537 53.815433 87.977085 53.797803 87.929656 C 53.789003 87.905936 53.772636 87.82795 53.760596 87.757574 C 53.732536 87.586986 53.71486 87.5248 53.660343 87.410825 C 53.602613 87.289189 53.59951 87.280283 53.58748 87.217555 C 53.57868 87.165535 53.57408 87.157162 53.50273 87.064593 C 53.4891 87.046263 53.457554 86.996608 53.433484 86.954522 C 53.408634 86.911692 53.365202 86.84549 53.336332 86.807244 C 53.290632 86.747574 53.283622 86.733491 53.283622 86.705958 C 53.283622 86.677658 53.279653 86.668954 53.251583 86.646014 C 53.233143 86.629944 53.219543 86.612566 53.219543 86.602606 C 53.219543 86.592606 53.213064 86.583931 53.203524 86.580901 C 53.194724 86.578501 53.155177 86.541029 53.116707 86.498219 C 53.010878 86.382707 52.90749 86.292667 52.780811 86.204697 C 52.674982 86.132017 52.661374 86.124477 52.569971 86.096177 C 52.405607 86.044157 52.115412 85.995924 51.969491 85.995924 C 51.799515 85.995924 51.642333 85.969295 51.558146 85.927195 C 51.541306 85.918795 51.512284 85.911692 51.493034 85.911692 C 51.460154 85.911692 51.457894 85.909881 51.457894 85.892571 C 51.457894 85.879581 51.443689 85.86039 51.412419 85.83211 C 51.387569 85.80915 51.36746 85.783949 51.36746 85.776299 C 51.36746 85.757919 51.35231 85.743226 51.33387 85.743226 C 51.32577 85.743226 51.319401 85.740275 51.319401 85.735475 C 51.319401 85.724025 51.293031 85.697265 51.285811 85.701885 C 51.282611 85.704285 51.279093 85.700034 51.279093 85.694134 C 51.279093 85.687234 51.273638 85.682248 51.267208 85.682248 C 51.260708 85.682248 51.255322 85.676929 51.255322 85.670879 C 51.255322 85.664779 51.2485 85.659511 51.24137 85.659511 C 51.23327 85.659511 51.200636 85.628484 51.166956 85.588714 C 51.045087 85.447194 50.941596 85.369487 50.834159 85.341184 C 50.790262 85.329131 50.587532 85.321425 50.479142 85.324131 z M 40.850789 85.35462 C 39.654878 85.35462 38.681413 86.137895 38.681413 87.31264 C 38.681413 88.254552 39.273732 88.635413 40.173311 89.016412 C 41.125807 89.418577 41.6125 89.661833 41.6125 90.434413 C 41.6125 91.249326 40.893222 91.789369 39.898393 91.789369 C 39.273979 91.789369 38.913791 91.651928 38.744458 91.14393 L 38.681413 91.101556 L 38.353267 91.133078 L 38.247331 91.863266 L 38.278853 91.93768 C 38.702185 92.170513 39.157396 92.254974 39.728894 92.254974 C 41.369304 92.254974 42.490999 91.334115 42.490999 90.03237 C 42.490999 89.069291 41.99397 88.667139 40.776892 88.201474 C 39.972562 87.894559 39.517021 87.63024 39.517021 86.88941 C 39.517021 86.233246 40.014564 85.820224 40.702478 85.820224 C 41.295142 85.820224 41.623456 86.042848 41.729289 86.46618 L 41.792851 86.508038 L 42.120996 86.476515 L 42.226416 85.788702 L 42.194893 85.714288 C 41.962061 85.523788 41.284704 85.35462 40.850789 85.35462 z M 32.669893 85.545306 C 32.394728 85.566472 32.077205 85.566493 31.854956 85.566493 L 31.781059 85.598016 C 31.061395 86.423512 30.468308 87.026997 29.505229 87.947743 C 29.081897 88.349908 28.870207 88.529476 28.690291 88.645892 C 28.690291 86.687983 28.690581 86.497927 28.722331 85.937013 C 28.732914 85.810014 28.753874 85.693286 28.775041 85.619203 L 28.732666 85.555641 C 28.61625 85.566224 28.436394 85.566493 28.267061 85.566493 C 28.097729 85.566493 27.917873 85.566224 27.801457 85.555641 L 27.759082 85.619203 C 27.780249 85.693286 27.801725 85.810014 27.812309 85.937013 C 27.844059 86.497927 27.843831 86.889005 27.843831 88.846913 C 27.843831 90.804821 27.844059 91.196415 27.812309 91.75733 C 27.801725 91.884329 27.780249 92.001057 27.759082 92.07514 L 27.801457 92.138702 C 27.917873 92.128118 28.097729 92.12785 28.267061 92.12785 C 28.436394 92.12785 28.61625 92.128118 28.732666 92.138702 L 28.775041 92.07514 C 28.753874 92.001057 28.732914 91.884329 28.722331 91.75733 C 28.690581 91.217582 28.690291 90.741633 28.690291 89.164723 C 28.870207 89.302306 28.997396 89.408265 29.410144 89.821014 C 29.981642 90.403095 30.838793 91.376663 31.420874 92.096327 L 31.495288 92.12785 C 31.812787 92.12785 32.373396 92.12787 32.764978 92.149037 L 32.797017 91.969203 C 32.680601 91.916287 32.585288 91.852827 32.468872 91.746994 C 31.33646 90.678082 30.214288 89.524388 29.484041 88.730641 L 29.484041 88.688266 C 30.817536 87.344189 31.347063 86.836448 32.225476 86.053285 C 32.394809 85.905119 32.574417 85.778056 32.701416 85.72514 L 32.669893 85.545306 z M 33.812976 85.555641 L 33.770601 85.619203 C 33.791768 85.693286 33.812728 85.810014 33.823311 85.937013 C 33.855061 86.497927 33.855351 86.889005 33.855351 88.846913 C 33.855351 90.804821 33.844478 91.228165 33.823311 91.75733 C 33.812728 91.884329 33.791768 92.001057 33.770601 92.07514 L 33.812976 92.138702 C 33.929392 92.128118 34.109248 92.12785 34.278581 92.12785 L 35.781331 92.12785 C 36.331662 92.12785 36.945521 92.12787 37.390019 92.149037 L 37.506291 92.12785 L 37.580705 91.366139 L 37.262895 91.312912 L 37.188997 91.344952 C 37.051415 91.524868 36.91385 91.588369 36.681018 91.609535 C 36.405853 91.641285 36.12014 91.662245 35.400476 91.662245 C 34.892478 91.662245 34.743917 91.408244 34.733333 91.133078 C 34.701583 90.466331 34.701811 90.222741 34.701811 88.846913 C 34.701811 86.889005 34.701583 86.497927 34.733333 85.937013 C 34.743917 85.810014 34.765393 85.693286 34.78656 85.619203 L 34.744185 85.555641 C 34.627769 85.566224 34.447913 85.566493 34.278581 85.566493 C 34.109248 85.566493 33.929392 85.566224 33.812976 85.555641 z M 47.691715 92.555731 C 47.332941 92.555731 47.040592 92.790867 47.040592 93.143292 C 47.040592 93.425866 47.218752 93.540072 47.488627 93.654372 C 47.774377 93.775021 47.920125 93.847894 47.920125 94.079669 C 47.920125 94.324143 47.704395 94.486362 47.405945 94.486362 C 47.21862 94.486362 47.110513 94.444975 47.059713 94.292575 L 47.040592 94.279656 L 46.942407 94.289475 L 46.910368 94.508583 L 46.920186 94.530804 C 47.047186 94.600654 47.183852 94.625888 47.355302 94.625888 C 47.847426 94.625888 48.183675 94.349787 48.183675 93.959262 C 48.183675 93.670338 48.034619 93.549642 47.669495 93.409942 C 47.428195 93.317867 47.29174 93.238417 47.29174 93.016168 C 47.29174 92.819318 47.440899 92.695774 47.647274 92.695774 C 47.825074 92.695774 47.923515 92.762044 47.955265 92.889044 L 47.974386 92.901963 L 48.072571 92.892661 L 48.10461 92.685955 L 48.094792 92.663734 C 48.024942 92.606584 47.82189 92.555731 47.691715 92.555731 z M 29.225659 92.613091 C 29.143109 92.619441 29.047905 92.619293 28.98123 92.619293 L 28.959009 92.629111 C 28.743109 92.876761 28.565288 93.057753 28.276363 93.333978 C 28.149363 93.454628 28.085909 93.508342 28.031934 93.543267 C 28.031934 92.955893 28.032227 92.898672 28.041752 92.730397 C 28.044927 92.692297 28.050905 92.657537 28.057255 92.635312 L 28.044853 92.616192 C 28.009928 92.619367 27.95561 92.619293 27.90481 92.619293 C 27.85401 92.619293 27.800208 92.619367 27.765283 92.616192 L 27.752881 92.635312 C 27.759231 92.657537 27.765209 92.692297 27.768384 92.730397 C 27.777909 92.898672 27.778202 93.016354 27.778202 93.603729 C 27.778202 94.191103 27.777909 94.308269 27.768384 94.476544 C 27.765209 94.514644 27.759231 94.54992 27.752881 94.572145 L 27.765283 94.591265 C 27.800208 94.58809 27.85401 94.587648 27.90481 94.587648 C 27.95561 94.587648 28.009928 94.58809 28.044853 94.591265 L 28.057255 94.572145 C 28.050905 94.54992 28.044927 94.514644 28.041752 94.476544 C 28.032227 94.314619 28.031934 94.171888 28.031934 93.698813 C 28.085909 93.740088 28.124116 93.771876 28.247941 93.8957 C 28.419391 94.070325 28.67638 94.362446 28.851005 94.578346 L 28.873226 94.587648 C 28.968476 94.587648 29.137123 94.588016 29.254598 94.594366 L 29.2639 94.540106 C 29.228975 94.524231 29.200639 94.505193 29.165715 94.473443 C 28.82599 94.152768 28.489237 93.806713 28.270162 93.568589 L 28.270162 93.556186 C 28.670212 93.152962 28.828809 93.000487 29.092334 92.765537 C 29.143134 92.721087 29.197378 92.68271 29.235478 92.666835 L 29.225659 92.613091 z M 36.236084 92.616192 L 36.223682 92.635312 C 36.230032 92.657537 36.23601 92.692297 36.239185 92.730397 C 36.24871 92.898672 36.249003 93.016354 36.249003 93.603729 C 36.249003 94.191103 36.245535 94.317794 36.239185 94.476544 C 36.23601 94.514644 36.230032 94.54992 36.223682 94.572145 L 36.236084 94.591265 C 36.271009 94.58809 36.325327 94.587648 36.376127 94.587648 L 36.826746 94.587648 C 36.991845 94.587648 37.176054 94.588016 37.309403 94.594366 L 37.344543 94.587648 L 37.366764 94.359238 L 37.271163 94.343218 L 37.248942 94.353037 C 37.207667 94.407012 37.166347 94.425752 37.096497 94.432102 C 37.013947 94.441627 36.92844 94.448122 36.712541 94.448122 C 36.560141 94.448122 36.515728 94.372025 36.512553 94.289475 C 36.503028 94.08945 36.502734 94.016478 36.502734 93.603729 C 36.502734 93.016354 36.503028 92.898672 36.512553 92.730397 C 36.515728 92.692297 36.522223 92.657537 36.528573 92.635312 L 36.515653 92.616192 C 36.480729 92.619367 36.426927 92.619293 36.376127 92.619293 C 36.325327 92.619293 36.271009 92.619367 36.236084 92.616192 z M 42.935417 92.749517 C 42.852867 92.749517 42.789689 92.813137 42.789689 92.898862 C 42.789689 92.978237 42.849915 93.035288 42.926115 93.035288 C 43.01184 93.035288 43.07546 92.968493 43.07546 92.885943 C 43.07546 92.809743 43.014792 92.749517 42.935417 92.749517 z M 51.228451 93.124171 C 51.193526 93.181321 51.165194 93.219541 51.108044 93.273516 C 51.057244 93.321141 51.009652 93.352796 50.930278 93.387721 L 50.917358 93.406841 L 50.927177 93.470403 C 50.974802 93.464053 51.025577 93.460585 51.060502 93.460585 C 51.063677 93.53996 51.066703 93.676646 51.066703 93.784596 C 51.066703 93.930646 51.056959 94.165733 51.053784 94.241933 C 51.041084 94.476882 51.1746 94.613486 51.355575 94.613486 C 51.507974 94.613486 51.580855 94.594233 51.73643 94.511684 L 51.708008 94.429001 L 51.685787 94.429001 C 51.612762 94.454401 51.555872 94.464141 51.476497 94.464141 C 51.397122 94.464141 51.308181 94.438853 51.301831 94.261053 C 51.295481 94.118178 51.295481 93.759183 51.301831 93.454384 C 51.381206 93.448034 51.641184 93.445082 51.714209 93.445082 L 51.727128 93.32726 L 51.679586 93.311757 C 51.593861 93.321282 51.374414 93.32726 51.298214 93.32726 C 51.298214 93.260585 51.301682 93.190772 51.308032 93.127272 L 51.228451 93.124171 z M 31.143372 93.276617 L 30.90566 93.340179 L 30.892741 93.390822 C 30.924491 93.428922 30.930758 93.470532 30.940283 93.575307 C 30.943458 93.622932 30.943384 93.692583 30.943384 93.848158 C 30.943384 94.045008 30.940432 94.289219 30.934082 94.476544 C 30.930907 94.514644 30.927513 94.54992 30.921163 94.572145 L 30.934082 94.591265 C 30.969007 94.58809 31.009964 94.587648 31.057589 94.587648 C 31.105214 94.587648 31.146687 94.58809 31.181612 94.591265 L 31.194531 94.572145 C 31.188181 94.54992 31.181612 94.514644 31.181612 94.476544 C 31.175262 94.289219 31.17231 94.089524 31.17231 93.889499 C 31.17231 93.762499 31.194374 93.670404 31.245174 93.603729 C 31.308674 93.518004 31.388078 93.479705 31.486503 93.479705 C 31.648428 93.479705 31.769173 93.581239 31.769173 93.835239 L 31.769173 94.232114 C 31.769173 94.467064 31.769024 94.514623 31.775374 94.587648 L 31.89268 94.587648 C 31.93078 94.587648 32.000973 94.591191 32.032723 94.594366 L 32.042025 94.537005 C 32.016625 94.517955 32.000684 94.482976 32.000684 94.429001 C 31.997509 94.324226 31.997583 94.232498 31.997583 93.753073 C 31.997583 93.473674 31.826215 93.292636 31.553166 93.292636 C 31.381716 93.292636 31.26756 93.384745 31.17231 93.511745 C 31.17231 93.41967 31.175188 93.384637 31.184713 93.295737 L 31.143372 93.276617 z M 32.651807 93.276617 L 32.419779 93.340179 L 32.407377 93.390822 C 32.439127 93.428922 32.445394 93.470532 32.454919 93.575307 C 32.458094 93.622932 32.45802 93.70518 32.45802 94.40368 C 32.45802 94.848179 32.455068 95.092787 32.448718 95.280112 C 32.445543 95.318212 32.442149 95.352972 32.435799 95.375197 L 32.448718 95.394317 C 32.483643 95.391142 32.5246 95.391216 32.572225 95.391216 C 32.61985 95.391216 32.661323 95.391142 32.696248 95.394317 L 32.708651 95.375197 C 32.702301 95.352972 32.696248 95.318212 32.696248 95.280112 C 32.689898 95.092787 32.683329 94.876577 32.683329 94.565427 C 32.765879 94.594002 32.886769 94.613486 32.982019 94.613486 C 33.369369 94.613486 33.715308 94.32418 33.715308 93.879681 C 33.715308 93.524081 33.483574 93.292636 33.096224 93.292636 C 32.924774 93.292636 32.784929 93.352714 32.683329 93.435263 C 32.683329 93.374939 32.686798 93.340187 32.693148 93.295737 L 32.651807 93.276617 z M 40.570186 93.276617 L 40.331958 93.340179 L 40.319556 93.390822 C 40.351306 93.428922 40.357573 93.470532 40.367098 93.575307 C 40.370273 93.622932 40.370199 93.692583 40.370199 93.848158 C 40.370199 94.045008 40.36673 94.289219 40.36038 94.476544 C 40.357205 94.514644 40.354328 94.54992 40.347978 94.572145 L 40.36038 94.591265 C 40.395305 94.58809 40.436779 94.587648 40.484403 94.587648 C 40.532028 94.587648 40.573502 94.58809 40.608427 94.591265 L 40.620829 94.572145 C 40.614479 94.54992 40.608427 94.514644 40.608427 94.476544 C 40.602077 94.289219 40.598608 94.089524 40.598608 93.889499 L 40.598608 93.717934 C 40.598608 93.657609 40.601775 93.613187 40.64305 93.562387 C 40.677975 93.514763 40.725943 93.498825 40.783093 93.498825 C 40.833893 93.498825 40.87478 93.527384 40.88748 93.587709 L 40.909701 93.597527 L 40.983081 93.587709 L 41.001685 93.321059 L 40.986182 93.305039 C 40.963957 93.295514 40.916427 93.289536 40.871977 93.289536 C 40.786252 93.289536 40.681158 93.333506 40.598608 93.485906 C 40.598608 93.435106 40.602003 93.384637 40.611528 93.295737 L 40.570186 93.276617 z M 41.503463 93.276617 L 41.265234 93.340179 L 41.252832 93.390822 C 41.284582 93.428922 41.290849 93.470532 41.300374 93.575307 C 41.303549 93.622932 41.303475 93.692583 41.303475 93.848158 C 41.303475 94.045008 41.300523 94.289219 41.294173 94.476544 C 41.290998 94.514644 41.287604 94.54992 41.281254 94.572145 L 41.294173 94.591265 C 41.329098 94.58809 41.370055 94.587648 41.41768 94.587648 C 41.465305 94.587648 41.506778 94.58809 41.541703 94.591265 L 41.554622 94.572145 C 41.548272 94.54992 41.541703 94.514644 41.541703 94.476544 C 41.535353 94.289219 41.532402 94.089524 41.532402 93.889499 C 41.532402 93.762499 41.554465 93.670404 41.605265 93.603729 C 41.668765 93.518004 41.748169 93.479705 41.846594 93.479705 C 42.008519 93.479705 42.129264 93.581239 42.129264 93.835239 L 42.129264 94.232114 C 42.129264 94.467064 42.129116 94.514623 42.135465 94.587648 L 42.252771 94.587648 C 42.290871 94.587648 42.361064 94.591191 42.392814 94.594366 L 42.402116 94.537005 C 42.376716 94.517955 42.360775 94.482976 42.360775 94.429001 C 42.3576 94.324226 42.357674 94.232498 42.357674 93.753073 C 42.357674 93.473674 42.186307 93.292636 41.913257 93.292636 C 41.741807 93.292636 41.627651 93.384745 41.532402 93.511745 C 41.532402 93.41967 41.535279 93.384637 41.544804 93.295737 L 41.503463 93.276617 z M 43.027401 93.276617 L 42.789689 93.340179 L 42.77677 93.390822 C 42.80852 93.428922 42.814787 93.470532 42.824312 93.575307 C 42.827487 93.622932 42.827413 93.692583 42.827413 93.848158 C 42.827413 94.045008 42.824461 94.289219 42.818111 94.476544 C 42.814936 94.514644 42.811542 94.54992 42.805192 94.572145 L 42.818111 94.591265 C 42.853036 94.58809 42.893993 94.587648 42.941618 94.587648 C 42.989243 94.587648 43.030716 94.58809 43.065641 94.591265 L 43.07856 94.572145 C 43.07221 94.54992 43.065641 94.514644 43.065641 94.476544 C 43.059291 94.289219 43.05634 94.159374 43.05634 93.889499 C 43.05634 93.619625 43.059217 93.384637 43.068742 93.295737 L 43.027401 93.276617 z M 43.761206 93.276617 L 43.522978 93.340179 L 43.510059 93.390822 C 43.541809 93.428922 43.548076 93.470532 43.557601 93.575307 C 43.560776 93.622932 43.561218 93.692583 43.561218 93.848158 C 43.561218 94.045008 43.55775 94.289219 43.5514 94.476544 C 43.548225 94.514644 43.545347 94.54992 43.538997 94.572145 L 43.5514 94.591265 C 43.586325 94.58809 43.627798 94.587648 43.675423 94.587648 C 43.723048 94.587648 43.764005 94.58809 43.79893 94.591265 L 43.811849 94.572145 C 43.805499 94.54992 43.79893 94.514644 43.79893 94.476544 C 43.79258 94.289219 43.789628 94.089524 43.789628 93.889499 C 43.789628 93.762499 43.811692 93.670404 43.862492 93.603729 C 43.925992 93.518004 44.005396 93.479705 44.103821 93.479705 C 44.265746 93.479705 44.386491 93.581239 44.386491 93.835239 L 44.386491 94.232114 C 44.386491 94.467064 44.386342 94.514623 44.392692 94.587648 L 44.510514 94.587648 C 44.548614 94.587648 44.618291 94.591191 44.650041 94.594366 L 44.659342 94.537005 C 44.633942 94.517955 44.618001 94.482976 44.618001 94.429001 C 44.614826 94.324226 44.614901 94.232498 44.614901 93.753073 C 44.614901 93.473674 44.443533 93.292636 44.170483 93.292636 C 43.999034 93.292636 43.884878 93.384745 43.789628 93.511745 C 43.789628 93.41967 43.792505 93.384637 43.80203 93.295737 L 43.761206 93.276617 z M 53.638639 93.276617 L 53.400411 93.340179 L 53.387492 93.390822 C 53.419242 93.428922 53.425509 93.470532 53.435034 93.575307 C 53.438209 93.622932 53.438652 93.692583 53.438652 93.848158 C 53.438652 94.045008 53.435183 94.289219 53.428833 94.476544 C 53.425658 94.514644 53.422781 94.54992 53.416431 94.572145 L 53.428833 94.591265 C 53.463758 94.58809 53.505231 94.587648 53.552856 94.587648 C 53.600481 94.587648 53.641438 94.58809 53.676363 94.591265 L 53.689282 94.572145 C 53.682932 94.54992 53.676363 94.514644 53.676363 94.476544 C 53.670013 94.289219 53.667061 94.089524 53.667061 93.889499 C 53.667061 93.762499 53.689125 93.670404 53.739925 93.603729 C 53.803425 93.518004 53.87323 93.473504 53.984355 93.473504 C 54.146279 93.473504 54.263924 93.575183 54.263924 93.845058 C 54.263924 94.114932 54.260972 94.289219 54.254622 94.476544 C 54.251447 94.514644 54.248053 94.54992 54.241703 94.572145 L 54.254622 94.591265 C 54.289547 94.58809 54.330504 94.587648 54.378129 94.587648 C 54.425754 94.587648 54.467228 94.58809 54.502153 94.591265 L 54.514555 94.572145 C 54.508205 94.54992 54.502153 94.514644 54.502153 94.476544 C 54.495803 94.289219 54.492334 94.124147 54.492334 93.924122 C 54.492334 93.797123 54.514621 93.711377 54.555896 93.638352 C 54.613046 93.539927 54.699019 93.473504 54.810144 93.473504 C 54.972069 93.473504 55.089197 93.575183 55.089197 93.845058 L 55.089197 94.232114 C 55.089197 94.467064 55.089565 94.514623 55.095915 94.587648 L 55.21322 94.587648 C 55.25132 94.587648 55.320997 94.591191 55.352747 94.594366 L 55.362565 94.537005 C 55.337165 94.517955 55.321224 94.482976 55.321224 94.429001 C 55.318049 94.324226 55.318123 94.232498 55.318123 93.753073 C 55.318123 93.473674 55.159158 93.292636 54.886108 93.292636 C 54.708309 93.292636 54.581461 93.371743 54.460811 93.546368 C 54.413186 93.406668 54.276736 93.292636 54.060836 93.292636 C 53.898911 93.292636 53.778186 93.365695 53.667061 93.511745 C 53.667061 93.41967 53.669939 93.384637 53.679464 93.295737 L 53.638639 93.276617 z M 30.054549 93.292636 C 29.689425 93.292636 29.432365 93.594287 29.432365 93.953061 C 29.432365 94.378511 29.699165 94.613486 30.089689 94.613486 C 30.280189 94.613486 30.419881 94.565663 30.531006 94.489463 L 30.495866 94.40368 L 30.479846 94.397479 C 30.406821 94.432404 30.311546 94.45794 30.216296 94.45794 C 29.911497 94.45794 29.692521 94.276473 29.682996 93.927223 L 30.010107 93.927223 C 30.511757 93.927223 30.56873 93.918153 30.56873 93.864178 C 30.56873 93.543503 30.397449 93.292636 30.054549 93.292636 z M 34.607243 93.292636 C 34.229418 93.292636 33.969556 93.562309 33.969556 93.984584 C 33.969556 94.362409 34.232593 94.613486 34.607243 94.613486 C 34.966017 94.613486 35.258366 94.362346 35.258366 93.921022 C 35.258366 93.600347 35.032692 93.292636 34.607243 93.292636 z M 38.172917 93.292636 C 37.807792 93.292636 37.550732 93.594287 37.550732 93.953061 C 37.550732 94.378511 37.817532 94.613486 38.208057 94.613486 C 38.398556 94.613486 38.538248 94.565663 38.649373 94.489463 L 38.614233 94.40368 L 38.598214 94.397479 C 38.525189 94.432404 38.430431 94.45794 38.335181 94.45794 C 38.030381 94.45794 37.810888 94.276473 37.801363 93.927223 L 38.128475 93.927223 C 38.630124 93.927223 38.687097 93.918153 38.687097 93.864178 C 38.687097 93.543503 38.515816 93.292636 38.172917 93.292636 z M 39.465344 93.292636 C 39.271669 93.292636 39.141205 93.346215 39.03643 93.441465 L 39.027128 93.463685 L 39.043148 93.625949 L 39.132031 93.632151 L 39.151152 93.619748 C 39.182902 93.492748 39.274778 93.419244 39.424003 93.419244 C 39.592278 93.419244 39.62089 93.533862 39.62089 93.692612 C 39.62089 93.743412 39.617422 93.812936 39.611072 93.86056 C 39.487247 93.908185 39.334855 93.956302 39.169755 93.994402 C 39.017355 94.029327 38.950647 94.127633 38.950647 94.241933 C 38.950647 94.476882 39.106309 94.613486 39.277759 94.613486 C 39.439684 94.613486 39.547717 94.543591 39.627091 94.461041 C 39.649316 94.568991 39.706582 94.613486 39.798657 94.613486 C 39.878032 94.613486 39.979434 94.578358 40.071509 94.511684 L 40.043087 94.435719 C 39.989112 94.457944 39.966759 94.461041 39.938184 94.461041 C 39.877859 94.461041 39.839998 94.41022 39.839998 94.17527 C 39.839998 93.96572 39.84295 93.854318 39.8493 93.679693 C 39.858825 93.435218 39.770144 93.292636 39.465344 93.292636 z M 45.494434 93.292636 C 45.215034 93.292636 44.992655 93.473372 44.992655 93.787697 C 44.992655 93.971847 45.078418 94.105271 45.189543 94.181471 C 45.141918 94.257671 45.100965 94.311464 45.043815 94.365439 L 45.021594 94.4228 C 45.021594 94.508525 45.072295 94.590963 45.15802 94.625888 C 45.07547 94.733838 44.989869 94.819584 44.888269 94.911659 C 44.859694 94.937059 44.846928 94.975436 44.846928 95.010361 C 44.846928 95.254836 45.050256 95.407236 45.348706 95.407236 C 45.723356 95.407236 46.110417 95.127505 46.110417 94.803655 C 46.110417 94.587756 45.967417 94.45794 45.586418 94.45794 C 45.341943 94.45794 45.250004 94.397499 45.250004 94.286374 C 45.250004 94.270499 45.262919 94.245037 45.285144 94.222812 C 45.335944 94.245037 45.418312 94.254335 45.469112 94.254335 C 45.773912 94.254335 45.98691 94.092352 45.98691 93.771677 C 45.98691 93.673252 45.957913 93.56536 45.872188 93.460585 L 46.062874 93.460585 L 46.078894 93.343279 L 46.034452 93.321059 C 45.945552 93.336934 45.859724 93.340179 45.796224 93.340179 C 45.745424 93.340179 45.6945 93.321207 45.6691 93.314857 C 45.615125 93.298982 45.561109 93.292636 45.494434 93.292636 z M 50.295174 93.292636 C 50.050699 93.292636 49.860059 93.483211 49.860059 93.686411 C 49.860059 93.876911 49.958352 93.974972 50.174251 94.054347 C 50.374276 94.127372 50.41558 94.194076 50.41558 94.295676 C 50.41558 94.416326 50.314249 94.492563 50.161849 94.492563 C 50.028499 94.492563 49.949095 94.435591 49.92052 94.330816 L 49.9014 94.317897 L 49.815617 94.327715 L 49.796497 94.502382 L 49.806315 94.524603 C 49.89839 94.588103 50.006134 94.613486 50.123608 94.613486 C 50.387133 94.613486 50.638306 94.482873 50.638306 94.190773 C 50.638306 94.035198 50.565127 93.927686 50.269853 93.819736 C 50.133328 93.768936 50.076066 93.717735 50.076066 93.59391 C 50.076066 93.489135 50.174305 93.413043 50.282255 93.413043 C 50.409255 93.413043 50.469539 93.470532 50.504464 93.575307 L 50.523584 93.587709 L 50.609367 93.578407 L 50.628487 93.40064 L 50.619185 93.378419 C 50.53981 93.318094 50.441224 93.292636 50.295174 93.292636 z M 52.555501 93.292636 C 52.190377 93.292636 51.933317 93.594287 51.933317 93.953061 C 51.933317 94.378511 52.200117 94.613486 52.590641 94.613486 C 52.781141 94.613486 52.920833 94.565663 53.031958 94.489463 L 52.997335 94.40368 L 52.981315 94.397479 C 52.90829 94.432404 52.813015 94.45794 52.717765 94.45794 C 52.412966 94.45794 52.19399 94.276473 52.184465 93.927223 L 52.51106 93.927223 C 53.012709 93.927223 53.070199 93.918153 53.070199 93.864178 C 53.070199 93.543503 52.898401 93.292636 52.555501 93.292636 z M 48.361442 93.311757 L 48.355241 93.368601 C 48.402866 93.394001 48.437696 93.419306 48.469446 93.482806 C 48.729796 94.009855 48.853753 94.286474 48.949003 94.546823 C 48.675953 95.162773 48.622131 95.248346 48.523706 95.368996 L 48.549028 95.413437 C 48.590302 95.400737 48.691865 95.387748 48.749015 95.381398 L 48.765035 95.365895 C 48.853935 95.130945 48.882452 95.061016 49.076127 94.597466 C 49.358702 93.918017 49.456962 93.695531 49.568087 93.482806 C 49.609362 93.406606 49.631492 93.384625 49.682292 93.3624 L 49.669889 93.311757 C 49.641314 93.318107 49.602863 93.317958 49.574288 93.317958 L 49.469902 93.317958 L 49.453882 93.333978 C 49.377682 93.556227 49.257098 93.876742 49.098348 94.200591 L 49.085429 94.200591 C 48.967954 93.971992 48.812519 93.60341 48.726794 93.33036 L 48.710775 93.317958 L 48.549028 93.317958 C 48.488703 93.317958 48.424942 93.318107 48.361442 93.311757 z M 45.472213 93.413043 C 45.650013 93.413043 45.754883 93.578217 45.754883 93.806817 C 45.754883 94.013192 45.669133 94.14013 45.491333 94.14013 C 45.313533 94.14013 45.224683 93.962553 45.224683 93.733953 C 45.224683 93.543453 45.310288 93.413043 45.472213 93.413043 z M 30.029228 93.419244 C 30.226078 93.419244 30.3212 93.568552 30.3212 93.768576 C 30.3212 93.790801 30.264107 93.800616 30.010107 93.800616 L 29.686096 93.800616 C 29.717846 93.549791 29.841903 93.419244 30.029228 93.419244 z M 34.588639 93.419244 C 34.852164 93.419244 34.994816 93.667155 34.994816 94.003704 C 34.994816 94.302154 34.848613 94.486362 34.626363 94.486362 C 34.394588 94.486362 34.232589 94.266956 34.232589 93.882781 C 34.232589 93.581157 34.356865 93.419244 34.588639 93.419244 z M 38.147595 93.419244 C 38.344445 93.419244 38.439567 93.568552 38.439567 93.768576 C 38.439567 93.790801 38.382475 93.800616 38.128475 93.800616 L 37.804464 93.800616 C 37.836214 93.549791 37.96027 93.419244 38.147595 93.419244 z M 52.53018 93.419244 C 52.72703 93.419244 52.822668 93.568552 52.822668 93.768576 C 52.822668 93.790801 52.765059 93.800616 52.51106 93.800616 L 52.187565 93.800616 C 52.219315 93.549791 52.342855 93.419244 52.53018 93.419244 z M 33.029561 93.441465 C 33.261336 93.441465 33.457959 93.619753 33.457959 93.994402 C 33.457959 94.280152 33.283342 94.486362 33.016642 94.486362 C 32.797567 94.486362 32.683329 94.365551 32.683329 94.162351 L 32.683329 93.714833 C 32.683329 93.641808 32.689671 93.600487 32.727771 93.562387 C 32.794446 93.495713 32.905736 93.441465 33.029561 93.441465 z M 39.614689 94.009905 C 39.614689 94.098805 39.614615 94.079727 39.61779 94.165451 C 39.620965 94.251176 39.59838 94.311688 39.56663 94.356137 C 39.52853 94.413287 39.474733 94.454323 39.404883 94.454323 C 39.290583 94.454323 39.214197 94.372112 39.214197 94.219712 C 39.214197 94.168912 39.240023 94.114961 39.306698 94.086386 C 39.395598 94.051462 39.506739 94.02578 39.614689 94.009905 z M 45.313566 94.65121 C 45.392941 94.65756 45.491246 94.661028 45.561096 94.661028 C 45.783346 94.661028 45.853585 94.746861 45.853585 94.877036 C 45.853585 95.096111 45.688414 95.273911 45.43759 95.273911 C 45.262965 95.273911 45.107377 95.159222 45.107377 94.981422 C 45.107377 94.867122 45.132595 94.80036 45.291345 94.65431 L 45.313566 94.65121 z " /><text
       xml:space="preserve"
       transform="matrix(0.26458333,0,0,0.26458333,26.615528,84.346103)"
       id="text216"
       style="font-style:normal;font-variant:normal;font-weight:normal;font-stretch:normal;font-family:Tenderness;-inkscape-font-specification:Tenderness;white-space:pre;shape-inside:url(#rect218);display:inline;fill:#000000" /></g></svg>
