<?xml version="1.0" encoding="utf-8"?>
<!-- Generator: Adobe Illustrator 15.0.0, SVG Export Plug-In . SVG Version: 6.00 Build 0)  -->
<!DOCTYPE svg PUBLIC "-//W3C//DTD SVG 1.1//EN" "http://www.w3.org/Graphics/SVG/1.1/DTD/svg11.dtd">
<svg version="1.1" id="Layer_1" xmlns="http://www.w3.org/2000/svg" xmlns:xlink="http://www.w3.org/1999/xlink" x="0px" y="0px"
	 width="850.394px" height="850.394px" viewBox="-127.556 -4.252 850.394 850.394"
	 enable-background="new -127.556 -4.252 850.394 850.394" xml:space="preserve">
<path d="M450.448,427.716c-0.367-10.422-3.701-22.447-3.818-31.976c-0.188-15.488,2.939-29.521,2.865-45.34
	c-0.088-18.588-1.076-38.388-4.81-54.418c-7.493-32.198-20.127-60.429-31.465-89.237c-2.664-6.768-5.86-13.702-9.545-20.522
	c-2.065-3.83-3.408-8.045-5.037-11.392c0,0-1.567-2.806-2.211-3.572c-4.389-6.4-9.777-12.088-16.535-14.626
	c-3.44-1.293-9.287-0.807-12.887-1.432c-6.02-1.046-14.104-6.509-21-9.591c-5.656-2.528-18.15-7.73-19.566-11.454
	c-1.614-4.251-1.606-13.513-0.479-20.477c0.332-2.048,0.796-4.925,1.43-7.068c0.922-3.131,1.818-6.216,2.39-7.25
	c1.45-2.629,5.553-3.65,6.682-6.204c2.668-6.026,2.375-18.95,0.479-22.909c-0.342-12.469,0.537-22.234-2.863-30.545
	c-1.939-4.742-8.711-12.539-15.336-16.143c-6.289-3.421-15.736-5.02-15.736-5.02c-8.671-1.158-17.085-0.418-26.279,4.936
	c-4.669,2.718-12.854,11.484-14.795,16.227c-3.402,8.311-2.522,18.076-2.864,30.545c-1.896,3.959-2.189,16.882,0.478,22.909
	c1.13,2.554,5.23,3.575,6.682,6.204c0.57,1.034,1.408,2.869,2.331,6c0.632,2.143,1.155,6.269,1.488,8.318
	c1.131,6.964,1.139,17.226-0.478,21.477c-1.416,3.724-13.911,8.926-19.567,11.454c-6.897,3.082-14.981,7.545-21,8.591
	c-3.599,0.625-9.443,0.139-12.886,1.432c-11.79,4.429-19.447,18.431-24.817,29.113c-3.563,7.086-14.744,36.227-17.659,44.863
	c-2.065,6.119-10.23,33.198-11.932,39.613c-1.387,5.232-1.427,10.623-2.863,15.75c-1.549,5.525-4.978,10.71-6.204,16.227
	c-1.666,7.496-2.266,16.768-3.341,25.771c-3.152,26.411,0.1,59.413-2.386,85.432c-1.371,14.336-6.073,31.764,5.455,35.579
	c10.573,3.496,35.826,10.104,31.771-6.467c3.127-1.326,8.169-0.738,9.545-3.816c0.117-7.037-0.075-11.459-2.863-16.229
	c-4.164-7.122-14.974-8.647-17.182-16.227c-1.126-3.866-1.001-9.063-0.954-12.886c0.114-9.423,2.113-19.302,3.817-28.638
	c1.636-8.956,6.108-17.198,7.637-25.295c2.513-13.313-0.037-27.485,3.818-39.135c2.449-7.402,7.2-14.916,10.499-21.954
	c6.985-14.899,11.983-27.314,20.522-38.658c0.467,5.905,4.983,11.156,6.682,17.182c1.635,5.797,3.135,13.406,4.207,20.87
	c1.576,10.961,3.822,21.437,3.43,33.538c-0.284,8.727-2.628,16.256-4.096,24.546c-1.182,6.672-2.382,13.188-4.019,19.362
	c-2.203,8.313-5.276,16.829-6.815,24.805c-3.946,20.451-7.227,41.783-8.456,64.923c-1.459,27.438-1.111,51.52,1.432,77.793
	c1.145,11.807,5.188,24.135,5.25,36.748c0.028,5.793-2.323,12.543-2.387,19.092c-0.038,3.988,0.426,8.385,0.036,11.943
	c-0.552,5.055-2.991,10.617-4.809,15.734c-1.926,5.424-4.258,10.902-5.728,16.23c-6.662,24.145-2.863,55.156-2.863,83.52
	c0,7.367,1.35,15.541,0.479,22.434c-0.371,2.93-2.017,6.252-2.864,9.545c-2.719,10.574-4.939,16.412-11.932,22.908
	c-4.748,4.41-11.079,7.908-17.658,12.408c-5.608,3.834-15.105,8.967-16.227,13.84c-0.431,1.873-1.409,5.283,0.477,9.068
	c1.158,2.324,3.149,3.188,5.25,4.729c2.91,2.133,7.764,3.959,8.591,4.34c3.529,1.625,9.312,0.609,12.409-0.953
	c5.546-2.803,11.128-9.842,17.182-15.273c5.891-5.285,11.938-12.146,17.181-15.27c2.917-1.738,6.15-2.127,7.159-3.818
	c2.132-3.572,1.583-14.316,1.909-19.566c0.438-7.041,0.538-14.602,1.909-20.045c1.159-4.602,3.469-8.475,4.828-13.156
	c0.625-2.154,1.222-4.74,1.854-6.889c4.472-15.205,13.523-29.6,18.136-45.34c2.027-6.92,3.314-14.396,4.295-21.479
	c1.367-9.869-0.662-20.482,1.433-31.498c2.134-11.227,8.42-22.195,10.977-33.889c1.408-6.438,1.766-13.096,2.863-19.564
	c4.884-28.785,13.533-56.281,20.522-81.613c0.745-2.697,1.775-6.301,3.341-8.111c8.093,18.926,11.792,39.549,16.229,61.09
	c2.205,10.697,4.188,21.965,5.729,32.93c1.616,11.525,1.625,23.139,4.771,33.887c2.557,8.721,7.91,16.48,9.545,25.295
	c2.623,14.146-0.521,29.842,2.865,43.908c2.825,11.76,8.352,23.332,12.407,34.84c4.213,11.947,9.441,23.99,12.408,35.316
	c2.004,7.648,0.592,16.201,1.909,25.295c0.605,4.191,3.146,6.428,3.886,9.988c0.498,2.395,0.26,6.924,0.887,10.057
	c1.121,5.605,6.349,13.76,10.023,21.48c2.055,4.316,7.307,16.238,12.139,19.072c4.955,2.904,20.816,1.975,24.133,0.492
	c3.664-1.635,8.968-9.25,9.068-12.408c0.09-2.832-2.439-6.582-3.818-9.545c-4.809-10.316-9.028-15.232-16.227-22.432
	c-3.109-3.109-10.004-10.027-11.455-13.363c-2.683-6.164-3.797-15.65-4.295-23.861c-1.522-25.131,4.336-56.666,2.862-81.137
	c-0.844-14.012-3.946-25.883-7.637-36.27c-2.051-5.773-5.414-11.402-6.203-17.184c-1.021-7.465-0.326-16.039-0.955-24.814
	c-1.772-24.756,2.246-43.203,4.771-64.908c3.949-33.916,4.771-69.666,1.908-104.52c-0.533-6.51-1.113-13.313-2.863-19.568
	c-2.146-7.671-9.008-63.422-7.158-76.839c1.734-12.586,2.945-25.583,4.771-37.704c1.813-12.015,3.115-24.078,8.113-34.363
	c6.977,7.583,11.131,19.247,16.229,31.022c4.709,10.878,12.07,21.552,15.271,32.454c2.409,8.209,0.047,22.431,0.952,31.021
	c0.697,6.584,2.705,14.047,3.818,21.479c1.117,7.442,2.851,14.939,3.342,21.954c0.506,7.225,2.398,24.972,0.479,31.977
	c-1.711,6.233-12.963,10.026-14.318,17.661c-1.771,9.975,1.264,17.73,5.41,23.859c1.635,2.414,7.963,2.438,10.498,2.309
	c2.975-0.15,6.088-0.672,8.91-0.873c1.748-0.127,6.645-0.211,7.635-0.48c3.65-0.982,5.236,0.379,7.637-1.906
	C449.551,451.179,450.704,434.916,450.448,427.716z"/>
</svg>
